<svg width="32" height="33" viewBox="0 0 32 33" fill="none" xmlns="http://www.w3.org/2000/svg">
<path d="M0.955223 0.5H31.0448C31.5723 0.5 32 0.927668 32 1.45522V31.5448C32 32.0723 31.5723 32.5 31.0448 32.5H0.955223C0.427668 32.5 0 32.0723 0 31.5448V1.45522C0 0.927668 0.427668 0.5 0.955223 0.5Z" fill="#123257"/>
<path d="M12.5641 12.5869H19.4345C19.6983 12.5869 19.9121 12.8007 19.9121 13.0645V19.9349C19.9121 20.1987 19.6983 20.4125 19.4345 20.4125H12.5641C12.3003 20.4125 12.0865 20.1987 12.0865 19.9349V13.0645C12.0865 12.8007 12.3003 12.5869 12.5641 12.5869Z" fill="#FF5F47"/>
<path d="M22.4899 12.5869H29.3603C29.6241 12.5869 29.8379 12.8007 29.8379 13.0645V19.9349C29.8379 20.1987 29.6241 20.4125 29.3603 20.4125H22.4899C22.2261 20.4125 22.0123 20.1987 22.0123 19.9349V13.0645C22.0123 12.8007 22.2261 12.5869 22.4899 12.5869Z" fill="white"/>
<path d="M22.4899 22.3965H29.3603C29.6241 22.3965 29.8379 22.6103 29.8379 22.8741V29.7445C29.8379 30.0083 29.6241 30.2221 29.3603 30.2221H22.4899C22.2261 30.2221 22.0123 30.0083 22.0123 29.7445V22.8741C22.0123 22.6103 22.2261 22.3965 22.4899 22.3965Z" fill="white"/>
<path d="M12.5641 22.3965H19.4345C19.6983 22.3965 19.9121 22.6103 19.9121 22.8741V29.7445C19.9121 30.0083 19.6983 30.2221 19.4345 30.2221H12.5641C12.3003 30.2221 12.0865 30.0083 12.0865 29.7445V22.8741C12.0865 22.6103 12.3003 22.3965 12.5641 22.3965Z" fill="white"/>
<path d="M2.75453 22.3965H9.62493C9.8887 22.3965 10.1025 22.6103 10.1025 22.8741V29.7445C10.1025 30.0083 9.8887 30.2221 9.62493 30.2221H2.75453C2.49075 30.2221 2.27691 30.0083 2.27691 29.7445V22.8741C2.27691 22.6103 2.49075 22.3965 2.75453 22.3965Z" fill="white"/>
<path d="M2.75453 12.5869H9.62493C9.8887 12.5869 10.1025 12.8007 10.1025 13.0645V19.9349C10.1025 20.1987 9.8887 20.4125 9.62493 20.4125H2.75453C2.49075 20.4125 2.27691 20.1987 2.27691 19.9349V13.0645C2.27691 12.8007 2.49075 12.5869 2.75453 12.5869Z" fill="white"/>
<path d="M2.75453 2.4668H9.62493C9.8887 2.4668 10.1025 2.68063 10.1025 2.94441V9.81481C10.1025 10.0786 9.8887 10.2924 9.62493 10.2924H2.75453C2.49075 10.2924 2.27691 10.0786 2.27691 9.81481V2.94441C2.27691 2.68063 2.49075 2.4668 2.75453 2.4668Z" fill="white"/>
<path d="M12.5641 2.4668H19.4345C19.6983 2.4668 19.9121 2.68063 19.9121 2.94441V9.81481C19.9121 10.0786 19.6983 10.2924 19.4345 10.2924H12.5641C12.3003 10.2924 12.0865 10.0786 12.0865 9.81481V2.94441C12.0865 2.68063 12.3003 2.4668 12.5641 2.4668Z" fill="white"/>
<path d="M22.4899 2.4668H29.3603C29.6241 2.4668 29.8379 2.68063 29.8379 2.94441V9.81481C29.8379 10.0786 29.6241 10.2924 29.3603 10.2924H22.4899C22.2261 10.2924 22.0123 10.0786 22.0123 9.81481V2.94441C22.0123 2.68063 22.2261 2.4668 22.4899 2.4668Z" fill="white"/>
</svg>
